<!-- icon666.com - MILLIONS OF FREE VECTOR ICONS --><svg id="Icons" viewBox="0 0 60 60" xmlns="http://www.w3.org/2000/svg"><path d="m21.467 59.471a.5.5 0 0 1 -.268-.922l11.14-7.064-13.715 7.915a.5.5 0 0 1 -.517-.855l13.093-8.256-15.621 9.016a.5.5 0 0 1 -.512-.859l6-3.682-6.621 3.822a.5.5 0 0 1 -.518-.855l18.917-12.02-19.828 11.446a.5.5 0 0 1 -.511-.859l5.806-3.546-6.151 3.548a.5.5 0 0 1 -.51-.861l2.349-1.423-2.615 1.509a.5.5 0 0 1 -.509-.86l.247-.149-.475.273a.5.5 0 0 1 -.516-.855l20.091-12.634-20.96 12.1a.5.5 0 0 1 -.512-.858l12.31-7.557-12.815 7.4a.5.5 0 0 1 -.515-.858l19.786-12.327-20.187 11.654a.5.5 0 0 1 -.515-.854l21.6-13.5-21.135 12.2a.5.5 0 0 1 -.514-.856l20.915-13.04-20.401 11.779a.5.5 0 0 1 -.515-.856l22.112-13.838-21.597 12.468a.5.5 0 0 1 -.51-.859l10.959-6.688-10.45 6.032a.5.5 0 0 1 -.514-.857l20.792-12.97-20.278 11.706a.5.5 0 0 1 -.511-.859l12.945-7.951-12.434 7.178a.5.5 0 0 1 -.517-.856l19.849-12.571-19.332 11.161a.5.5 0 0 1 -.518-.854l16.988-10.8-16.47 9.508a.5.5 0 0 1 -.512-.859l5.733-3.541-5.22 3.014a.5.5 0 0 1 -.513-.857l5.314-3.3-4.8 2.771a.5.5 0 0 1 -.522-.851l12.706-8.276-12.186 7.035a.5.5 0 0 1 -.517-.854l5.586-3.545-5.069 2.926a.5.5 0 0 1 -.531-.847l10.534-7.148-10 5.775a.5.5 0 0 1 -.536-.843l8.662-6.059-8.129 4.691a.5.5 0 0 1 -.531-.846l4.169-2.836-3.638 2.1a.5.5 0 0 1 -.54-.84l3.948-2.815-3.408 1.966a.5.5 0 0 1 -.563-.823l3.88-3.126-3.317 1.911a.5.5 0 0 1 -.556-.828l.857-.666-.3.173a.5.5 0 0 1 -.581-.807l.6-.528-.015.009a.5.5 0 0 1 -.644-.739l.579-.746a.5.5 0 0 1 -.139-.92l1.632-.943a.5.5 0 0 1 .645.74l-.363.466 2.106-1.211a.5.5 0 0 1 .581.807l-.6.527 2.319-1.334a.5.5 0 0 1 .557.827l-.857.666 2.584-1.493a.5.5 0 0 1 .563.822l-3.877 3.122 6.836-3.944a.5.5 0 0 1 .54.84l-3.946 2.814 6.331-3.654a.5.5 0 0 1 .531.845l-4.178 2.844 6.391-3.689a.5.5 0 0 1 .536.842l-8.659 6.058 11.948-6.9a.5.5 0 0 1 .531.846l-10.531 7.148 13.852-8a.5.5 0 0 1 .517.854l-5.59 3.552 7.621-4.4a.5.5 0 0 1 .522.851l-12.705 8.273 15.81-9.124a.5.5 0 0 1 .513.857l-5.3 3.292 7.184-4.149a.5.5 0 0 1 .513.858l-5.746 3.542 7.634-4.4a.5.5 0 0 1 .519.854l-16.987 10.8 20.186-11.654a.5.5 0 0 1 .518.855l-19.847 12.566 23.119-13.347a.5.5 0 0 1 .512.858l-12.955 7.958 13.81-7.971a.5.5 0 0 1 .515.856l-20.789 12.968 20.594-11.89a.5.5 0 0 1 .51.86l-10.945 6.68 10.435-6.024a.5.5 0 0 1 .515.856l-22.112 13.838 21.6-12.469a.5.5 0 0 1 .514.857l-20.918 13.04 20.4-11.778a.5.5 0 0 1 .514.857l-21.613 13.507 21.101-12.177a.5.5 0 0 1 .514.858l-19.779 12.32 19.265-11.122a.5.5 0 0 1 .511.858l-12.309 7.556 11.8-6.811a.5.5 0 0 1 .516.856l-20.1 12.635 19.582-11.3a.5.5 0 0 1 .508.86l-.444.27a.5.5 0 0 1 .445.891l-2.349 1.426 1.84-1.062a.5.5 0 0 1 .51.86l-5.787 3.535 5.277-3.046a.5.5 0 0 1 .518.855l-18.92 12.018 18.4-10.623a.5.5 0 0 1 .511.858l-5.99 3.678 5.481-3.163a.5.5 0 0 1 .516.856l-13.086 8.257 12.57-7.257a.5.5 0 0 1 .517.855l-11.138 7.061 10.617-6.13a.5.5 0 0 1 .517.855l-7.8 4.935 7.286-4.206a.5.5 0 0 1 .52.853l-8.129 5.223 7.609-4.393a.5.5 0 0 1 .525.85l-8.565 5.649 8.041-4.642a.5.5 0 0 1 .537.841l-9.3 6.521 8.768-5.062a.5.5 0 0 1 .524.851l-2 1.315 1.477-.851a.5.5 0 0 1 .548.834l-5.738 4.256 5.19-3a.5.5 0 0 1 .571.815l-4.398 3.695 3.823-2.207a.5.5 0 0 1 .578.811l-1.89 1.64 1.312-.757a.5.5 0 0 1 .67.7l-1.052 1.625.152-.087a.5.5 0 1 1 .5.865l-1.951 1.122a.5.5 0 0 1 -.612-.088.5.5 0 0 1 -.058-.616l1.049-1.619-4.021 2.323a.5.5 0 0 1 -.578-.81l1.889-1.639-4.247 2.449a.5.5 0 0 1 -.571-.815l4.394-3.685-7.808 4.5a.5.5 0 0 1 -.547-.834l5.733-4.252-8.811 5.086a.5.5 0 0 1 -.525-.85l2-1.316-3.752 2.166a.5.5 0 0 1 -.537-.841l9.306-6.522-12.754 7.363a.5.5 0 0 1 -.526-.849l8.569-5.651-11.259 6.5a.5.5 0 0 1 -.521-.853l8.129-5.223-10.524 6.076a.5.5 0 0 1 -.518-.855l7.8-4.934-10.025 5.789a.5.5 0 0 1 -.25.071z" fill="#e5b57a"></path><path d="m14.743 59.105a.5.5 0 0 1 -.5-.566l.091-.675-.391.225a.5.5 0 0 1 -.7-.658l.515-1.019-.949.547a.5.5 0 0 1 -.647-.735l.89-1.168-1.361.785a.5.5 0 0 1 -.632-.756l1.192-1.4-1.725 1a.5.5 0 0 1 -.6-.8l.189-.18-.36.208a.5.5 0 0 1 -.642-.743l.309-.389-.507.292a.5.5 0 0 1 -.682-.179l-.693-1.184a.5.5 0 0 1 -.423-.9l.356-.206a.5.5 0 0 1 .682.179l.69 1.178 2.368-1.361a.5.5 0 0 1 .629.106.5.5 0 0 1 .012.638l-.308.388 1.719-.993a.5.5 0 0 1 .594.8l-.188.18.582-.336a.5.5 0 0 1 .632.756l-1.192 1.4 1.027-.592a.5.5 0 0 1 .647.736l-.889 1.168.242-.14a.5.5 0 0 1 .7.658l-.538 1.066a.5.5 0 0 1 .587.557l-.151 1.123a.507.507 0 0 1 .088.111.5.5 0 0 1 -.18.684l-.226.128a.5.5 0 0 1 -.257.067z" fill="#f7cda1"></path><g fill="#262626"><path d="m12.741 27.494h4a1.022 1.022 0 0 0 .947-.43c.15-.3-.132-.558-.429-.558h-4a1.022 1.022 0 0 0 -.947.43c-.15.298.132.558.429.558z"></path><path d="m27.466 30.688h-14a1.653 1.653 0 0 0 -1.025.275c-.179.155-.235.349.093.349h14a1.653 1.653 0 0 0 1.025-.275c.179-.155.235-.349-.093-.349z"></path><path d="m14.421 34.445h-1.363c-.845 0-1.1 1.11-.116 1.11h11c.845 0 1.1-1.11.116-1.11z"></path><path d="m46.943 39.559c.848 0 1.095-1.118.114-1.118h-34c-.848 0-1.1 1.118-.114 1.118z"></path><path d="m20.929 27.506h15c.81 0 1.128-1.012.142-1.012h-15c-.81 0-1.128 1.012-.142 1.012z"></path><path d="m39.527 27.282h7a1.988 1.988 0 0 0 1.024-.274c.215-.139.216-.29-.078-.29h-7a1.988 1.988 0 0 0 -1.024.274c-.215.139-.216.29.078.29z"></path><path d="m47.3 42.67h-4a1.4 1.4 0 0 0 -.965.362c-.22.256.2.3.359.3h4a1.4 1.4 0 0 0 .965-.362c.223-.258-.192-.3-.359-.3z"></path><path d="m26.143 42.6h-1.858c-.288 0-.813.1-.958.39s.122.408.388.408h15c.288 0 .813-.1.958-.39s-.122-.408-.388-.408z"></path><path d="m14.338 42.707h-.868a1.9 1.9 0 0 0 -1.024.274c-.211.142-.215.312.084.312h7a1.9 1.9 0 0 0 1.024-.274c.211-.142.215-.312-.084-.312z"></path><path d="m32.26 46.507h-19c-.31 0-.82.085-.947.43a.407.407 0 0 0 .427.556h19c.31 0 .82-.085.947-.43a.407.407 0 0 0 -.427-.556z"></path><path d="m31.3 30.671c-.44 0-1.57.658-.608.658h16c.44 0 1.57-.658.608-.658z"></path><path d="m27.525 35.275h14a1.811 1.811 0 0 0 1.024-.275c.183-.149.245-.276-.074-.276h-14a1.811 1.811 0 0 0 -1.024.276c-.183.148-.245.275.074.275z"></path><path d="m47.057 34.444h-1a.765.765 0 0 0 -.291.068.71.71 0 0 0 -.253.134.532.532 0 0 0 -.167.189.4.4 0 0 0 -.082.213.431.431 0 0 0 .181.384.856.856 0 0 0 .5.124h1a.765.765 0 0 0 .291-.068.71.71 0 0 0 .253-.134.532.532 0 0 0 .167-.189.4.4 0 0 0 .082-.213.431.431 0 0 0 -.181-.384.856.856 0 0 0 -.5-.124z"></path><path d="m47.471 46.707h-11a1.805 1.805 0 0 0 -1.025.274c-.2.148-.228.312.083.312h11a1.8 1.8 0 0 0 1.025-.275c.195-.147.228-.311-.083-.311z"></path><path d="m29.3 50.658h-10a1.31 1.31 0 0 0 -.964.367c-.174.271.151.317.364.317h10a1.314 1.314 0 0 0 .964-.367c.174-.275-.151-.317-.364-.317z"></path><path d="m36.193 4.338c-2.007-4.44-8.188-4.823-11.3-1.37-1.4 1.549-1.613 3.4-1.613 5.379v4.2h-12.15c-1.952 0-4.665-.115-4.858 2.54-.131 1.809 0 3.675 0 5.486v23.513c0 2.027-.068 4.067 0 6.093a2.6 2.6 0 0 0 .179.88v.005a.3.3 0 0 0 .15.306 7.639 7.639 0 0 0 1.386 1.58l4.2 4.2a10.562 10.562 0 0 0 2.135 1.906.59.59 0 0 0 .613.268 3.3 3.3 0 0 0 .326.077.685.685 0 0 0 .3.056h16.712c6.109 0 12.236.141 18.344 0a2.9 2.9 0 0 0 3.111-2.536c.032-.437 0-.889 0-1.328v-39.851a3.983 3.983 0 0 0 -.255-1.9 2.722 2.722 0 0 0 -2.631-1.291c-4.7-.045-9.412-.024-14.118-.011v-4.13a9.5 9.5 0 0 0 -.531-4.072zm-23.649 51.24-3.75-3.75c-.109-.109-.2-.219-.3-.329h4.148.225c.016 0 .154.017.2.026a1.415 1.415 0 0 1 .551.264 1.714 1.714 0 0 1 .652 1.381c.011.961 0 1.921 0 2.882v1.407c-.67-.647-1.27-1.422-1.726-1.881zm35.479-42.125c1.523 0 4.063-.49 4.249 1.673.133 1.545 0 3.16 0 4.709v32.486c0 1.556.125 3.173 0 4.726-.095 1.187-.69 1.5-1.644 1.5h-34.528a1.82 1.82 0 0 1 -.367-.095c0-1.791.005-3.581 0-5.372a2.523 2.523 0 0 0 -2.682-2.58h-5.167a2.458 2.458 0 0 1 -.156-.788c-.02-.819 0-1.64 0-2.459v-30.653c0-1.3-.206-3.148 1.549-3.148h22.245a1.012 1.012 0 0 0 .756 0h3v2.453a9.455 9.455 0 0 1 -.315 3.118 5.021 5.021 0 0 1 -6.163 3.377 5.888 5.888 0 0 1 -4.073-5.591c-.01-.4-1.462-.136-1.448.388.13 5.178 5.905 7.639 10.151 5.2a6.5 6.5 0 0 0 3.3-5.583c.02-1.063 0-2.127 0-3.19v-.163zm-15.29-.907v-4.825a3.132 3.132 0 0 0 -.733-2.521 2.93 2.93 0 0 0 -4.423.714 3.194 3.194 0 0 0 -.31 1.686v1.457c0 .749 1.466.526 1.466-.114 0-.7-.037-1.411 0-2.11a1.331 1.331 0 0 1 .966-1.3h.19a1.349 1.349 0 0 1 .419.09 1.565 1.565 0 0 1 .7.6 3.381 3.381 0 0 1 .259 1.877v4.445h-6.547a59.667 59.667 0 0 1 .033-6.26 5.381 5.381 0 0 1 4.225-4.85 5.574 5.574 0 0 1 5.573 2.9c1.148 2.1.725 5.015.725 7.318v.888c-.848.001-1.695.005-2.543.005z"></path></g></svg>